HIERARCHY
ROOT hip
{
	OFFSET 0.000000 0.000000 0.000000 
	CHANNELS 6 Xposition Yposition Zposition Xrotation Zrotation Yrotation
	JOINT abdomen
	{
		OFFSET 0.000000 3.402643 0.000000 
		CHANNELS 3 Xrotation Zrotation Yrotation
		JOINT chest
		{
			OFFSET 0.000000 8.438565 -0.680529 
			CHANNELS 3 Xrotation Zrotation Yrotation
			JOINT neck
			{
				OFFSET 0.000000 10.207942 -0.272212 
				CHANNELS 3 Xrotation Zrotation Yrotation
				JOINT head
				{
					OFFSET 0.000000 3.130431 0.000000 
					CHANNELS 3 Xrotation Zrotation Yrotation
					End Site
					{
						OFFSET 0.000000 3.130435 0.000000 
					}
				}
			}
			JOINT lCollar
			{
				OFFSET 3.470700 6.669187 -0.816635 
				CHANNELS 3 Yrotation Zrotation Xrotation
				JOINT lShldr
				{
					OFFSET 3.198488 0.000000 0.000000 
					CHANNELS 3 Zrotation Yrotation Xrotation
					JOINT lForeArm
					{
						OFFSET 10.139888 0.000000 0.000000 
						CHANNELS 3 Yrotation Zrotation Xrotation
						JOINT lHand
						{
							OFFSET 8.370511 0.000000 0.000000 
							CHANNELS 3 Zrotation Yrotation Xrotation
							End Site
							{
								OFFSET 4.083176 0.000000 0.000000 
							}
						}
					}
				}
			}
			JOINT rCollar
			{
				OFFSET -3.470700 6.669187 -0.816635 
				CHANNELS 3 Yrotation Zrotation Xrotation
				JOINT rShldr
				{
					OFFSET -3.198488 0.000000 0.000000 
					CHANNELS 3 Zrotation Yrotation Xrotation
					JOINT rForeArm
					{
						OFFSET -10.139888 0.000000 0.000000 
						CHANNELS 3 Yrotation Zrotation Xrotation
						JOINT rHand
						{
							OFFSET -8.370511 0.000000 0.000000 
							CHANNELS 3 Zrotation Yrotation Xrotation
							End Site
							{
								OFFSET -4.083176 0.000000 0.000000 
							}
						}
					}
				}
			}
		}
	}
	JOINT lThigh
	{
		OFFSET 5.308129 -1.633274 1.361059 
		CHANNELS 3 Xrotation Zrotation Yrotation
		JOINT lShin
		{
			OFFSET -2.041588 -20.007561 0.000000 
			CHANNELS 3 Xrotation Zrotation Yrotation
			JOINT lFoot
			{
				OFFSET 0.000000 -19.190928 -1.224953 
				CHANNELS 3 Xrotation Yrotation Zrotation
				End Site
				{
					OFFSET 0.000000 -2.449906 4.627600 
				}
			}
		}
	}
	JOINT rThigh
	{
		OFFSET -5.308129 -1.633274 1.361059 
		CHANNELS 3 Xrotation Zrotation Yrotation
		JOINT rShin
		{
			OFFSET 2.041588 -20.007561 0.000000 
			CHANNELS 3 Xrotation Zrotation Yrotation
			JOINT rFoot
			{
				OFFSET 0.000000 -19.190928 -1.224953 
				CHANNELS 3 Xrotation Yrotation Zrotation
				End Site
				{
					OFFSET 0.000000 -2.449906 4.627600 
				}
			}
		}
	}
}
MOTION
Frames: 18
Frame Time: 0.033333
-26.065533 48.085266 86.569305 1.485249 -0.969396 71.586967 0.000000 0.000000 0.000000 -0.473593 1.259966 4.305187 7.466787 0.678544 11.866124 9.737978 -5.673857 8.223360 -1.503783 -4.703965 -0.116753 -69.139786 -4.724051 36.305466 -70.612282 3.152929 33.621136 -8.721281 8.398074 -3.957284 12.480339 15.904949 -1.131628 60.428562 -1.127385 44.995491 88.061966 -5.007763 33.640034 -8.981057 -6.126028 -3.334410 -10.029653 -3.093326 2.664368 4.051143 -4.323882 24.980200 -3.146577 -0.027506 2.775003 9.573060 -1.747054 -9.359950 3.631919 4.748687 -16.457298 -13.429378 -0.207446 1.827141 
-25.468266 48.138947 86.713936 1.438371 -1.533974 73.133812 0.000000 0.000000 0.000000 -1.076929 0.869947 4.538089 6.943399 0.496312 12.217347 9.657405 -5.602986 8.448784 -1.427914 -4.446877 -0.655918 -69.297920 -3.274438 35.901550 -70.730743 3.140911 32.911568 -8.576122 9.216535 -4.020773 12.723672 15.188758 -1.582115 61.218246 -2.432647 44.994419 88.186729 -5.005801 33.442059 -8.901487 -6.140722 -3.339593 -9.854989 -3.132831 2.657912 4.353851 -4.436321 24.953310 -3.487543 -0.035801 2.742951 8.226974 -2.059934 -9.967077 7.371696 5.289975 -15.832544 -13.925851 -0.300312 2.393834 
-24.883209 48.180878 86.866310 1.036043 -1.699854 74.887749 0.000000 0.000000 0.000000 -1.242781 0.684302 4.545765 6.428881 0.457794 12.412565 10.741938 -6.265471 8.704711 -1.264678 -4.582589 -0.792986 -68.962769 -1.994039 35.607773 -70.863098 2.992583 30.768080 -6.938687 9.930775 -3.988225 12.774282 14.697575 -1.678908 61.415394 -3.293198 44.995502 88.433472 -5.006056 32.516022 -9.423116 -6.088951 -3.327788 -9.305285 -2.977687 2.698589 4.889580 -4.407868 24.980230 -3.966130 -0.029744 2.675665 7.625284 -2.099403 -10.652801 10.551777 5.891389 -15.548743 -13.960649 -0.361398 2.909547 
-24.314203 48.225674 87.044846 0.536849 -1.529031 76.903809 0.000000 0.000000 0.000000 -1.106326 0.405657 4.503350 6.596018 0.543239 12.598285 10.327439 -6.719435 9.223527 -1.308891 -4.419366 -0.636482 -68.730400 -0.949897 35.358688 -70.966087 2.913053 28.857685 -5.079052 10.015746 -3.894604 12.668985 14.497834 -1.480025 61.213181 -3.729551 44.991112 88.390862 -5.009459 31.923946 -9.825768 -6.205619 -3.306893 -7.904853 -2.791070 2.699505 4.372539 -4.388002 24.992201 -4.572663 -0.058211 2.986977 7.152603 -2.206158 -11.528093 14.144000 6.564874 -14.948328 -13.702456 -0.428798 3.353977 
-23.772007 48.240124 87.169090 0.184616 -1.433124 79.175339 0.000000 0.000000 0.000000 -0.970702 0.137293 4.361880 6.892488 0.381075 12.695612 9.339972 -6.655042 9.566353 -1.617411 -4.887667 -0.528551 -67.609245 -0.298977 35.460182 -70.944099 2.630289 26.139906 -4.426426 9.565443 -3.824737 12.439769 14.249390 -1.290894 60.750446 -3.621199 44.989670 87.952484 -5.006058 32.352837 -9.522282 -6.075401 -3.319748 -7.236210 -2.763623 2.587294 4.899558 -4.271690 24.993809 -5.084861 -0.089834 3.010133 5.413134 -2.965248 -13.017940 20.292059 7.561450 -12.745467 -13.168116 -0.412593 3.478310 
-23.232296 48.250591 87.288025 0.094187 -1.290410 81.651093 0.000000 0.000000 0.000000 -0.757821 -0.306439 4.129032 6.951664 0.123864 12.666049 9.203377 -6.754066 9.912575 -2.127026 -5.718769 -0.371916 -66.106628 -0.230288 35.599812 -71.518364 2.737575 26.198709 -6.622018 10.436130 -4.013996 11.982450 13.814883 -0.977068 60.210537 -2.813551 44.996166 87.071449 -5.008843 33.471664 -9.436657 -5.599467 -3.360898 -6.275700 -2.898660 2.427278 4.860204 -4.279823 24.996527 -5.456680 -0.076100 3.051493 2.527548 -4.607321 -15.219293 28.903315 8.658287 -9.684445 -10.800979 -0.385600 3.396081 
-22.685913 48.296154 87.419533 0.140508 -1.117028 84.606186 0.000000 0.000000 0.000000 -0.595533 -0.811994 3.656785 6.931226 -0.228715 12.617281 9.521657 -6.389787 10.327465 -2.601673 -5.985944 -0.225193 -65.046074 -0.948670 36.532742 -71.736076 2.804137 27.298563 -7.426074 10.577975 -4.066299 11.491175 13.239812 -0.708932 60.210278 -1.872535 44.993237 86.066315 -5.010747 32.762245 -9.344553 -5.523295 -3.362736 -4.896417 -3.150573 2.065683 3.895155 -4.285306 24.993326 -5.529910 -0.098315 3.170189 0.067675 -6.637340 -17.938086 36.843216 9.947348 -8.883682 -5.559339 -0.262460 4.333102 
-22.185509 48.281719 87.547218 0.015707 -0.687855 87.383736 0.000000 0.000000 0.000000 -0.324358 -1.236299 3.422308 7.289358 -0.200164 12.568418 9.564293 -6.724523 10.846296 -3.026313 -6.035673 0.010725 -64.018517 -2.025681 37.903461 -71.785576 2.807061 28.076639 -7.245451 10.480254 -4.048440 11.456402 13.542074 -0.464857 59.559216 -1.230648 44.990887 85.530289 -5.004296 32.349747 -9.452146 -5.365696 -3.380595 -4.060570 -3.103467 2.111935 4.606920 -4.408538 24.992718 -5.962382 -0.092223 3.209070 -0.860397 -8.374933 -20.138586 41.524117 9.934701 -5.871429 -0.770301 -0.050704 3.676581 
-21.654181 48.308113 87.718597 -0.441029 -0.465401 90.387283 0.000000 0.000000 0.000000 -0.295447 -1.167694 3.317747 7.376439 -0.457061 12.822630 9.851130 -6.308785 10.994880 -3.066406 -6.982422 0.000000 -61.928234 -3.615271 40.279018 -71.713081 2.713456 29.129814 -6.662401 9.857963 -3.969960 11.318268 13.287077 -0.423245 59.777954 -0.941155 44.995483 84.424240 -5.012142 31.783930 -9.542150 -5.047913 -3.397890 -3.237488 -2.613985 2.391306 4.996929 -4.611917 24.993998 -6.505575 -0.168905 3.500577 -1.572757 -9.521619 -21.445763 44.328411 9.963432 -4.266746 3.731042 0.090665 3.775962 
-21.251030 48.356228 87.852036 -0.092973 -0.719389 93.918930 0.000000 0.000000 0.000000 -0.423973 -1.373526 3.111560 7.282264 -0.619223 12.705800 9.890285 -6.344812 11.103773 -3.202006 -7.677932 -0.136587 -60.427231 -5.680426 42.455181 -71.527061 2.574098 30.621838 -6.626819 9.157500 -3.908347 11.166625 13.425694 -0.523482 59.749134 -1.153305 44.996323 83.150276 -5.006378 31.512741 -8.589569 -4.529662 -3.445108 -2.507148 -2.614773 2.059117 4.168519 -4.597992 24.983152 -6.603481 -0.169039 3.757787 -2.519736 -10.918085 -22.310249 45.359501 9.971380 -4.269246 5.338315 0.224521 5.070993 
-20.789518 48.440556 88.005112 -0.715639 -0.782930 97.537773 0.000000 0.000000 0.000000 -0.589909 -1.316109 3.096335 7.345670 -0.867375 12.569705 9.389639 -5.765750 10.806788 -3.244393 -7.766180 -0.304761 -59.642338 -7.803289 44.441437 -70.416931 1.963207 32.218464 -6.711453 7.823174 -3.826931 11.285180 13.937943 -0.751324 59.663532 -2.189269 44.988617 81.232780 -5.012927 30.810492 -7.516163 -3.923814 -3.475081 -1.501258 -2.164321 1.948850 3.279912 -4.519996 22.567902 -5.806110 -0.089124 3.049142 -2.900987 -11.421441 -22.015535 44.574310 9.945756 -4.799984 4.598051 0.273864 6.355872 
-20.342655 48.530769 88.222633 -0.978723 -0.912475 101.272163 0.000000 0.000000 0.000000 -0.863391 -1.270251 3.062581 7.268364 -1.048950 12.453165 9.376644 -5.108762 10.500447 -3.143179 -7.987959 -0.550273 -59.126106 -9.574925 44.998028 -68.866814 1.044608 32.985249 -6.807146 6.383831 -3.709558 11.491973 14.346857 -1.048557 59.879414 -3.774580 43.786736 78.283524 -5.008357 30.868301 -7.573257 -3.791569 -3.489630 -0.522560 -1.418043 2.238492 2.196989 -4.771318 18.193224 -5.737841 -0.056629 3.094641 -2.871732 -11.089535 -20.781679 41.875088 9.611740 -7.626665 1.819643 0.117031 8.428930 
-20.015116 48.588234 88.412506 -0.995091 -1.496945 105.525238 0.000000 0.000000 0.000000 -1.305121 -1.528746 2.714226 7.004194 -1.318048 12.034309 9.334128 -4.258387 10.174736 -3.278055 -8.092012 -0.944578 -59.275509 -10.434690 45.002911 -66.735275 -0.031877 33.616970 -6.501534 5.002800 -3.611946 11.393563 14.416286 -1.465489 60.163631 -5.607187 39.188450 74.962570 -5.011885 29.842958 -8.362223 -3.394199 -3.503978 -0.097211 -1.129505 2.084073 0.810430 -5.023946 13.839272 -5.739799 -0.123077 3.321107 -2.978870 -11.022983 -19.309671 37.706440 8.508270 -10.949803 -1.908648 -0.192176 10.315434 
-19.746922 48.605659 88.713852 -0.936067 -2.018826 109.675888 0.000000 0.000000 0.000000 -1.434343 -1.997090 2.532794 6.739937 -1.397712 11.389956 9.334101 -4.387305 9.882625 -3.432456 -8.141368 -1.063011 -59.673840 -10.890809 44.501949 -64.177872 -1.195699 33.721134 -6.344777 4.171755 -3.548308 11.285685 14.374863 -1.545153 60.302341 -7.113959 34.284222 71.605598 -5.012026 28.844875 -8.675885 -3.385828 -3.499581 -0.287260 -0.686577 2.205006 0.809611 -5.400297 9.276508 -5.367148 -0.145238 3.190769 -3.320187 -10.968789 -17.389063 33.254658 7.105690 -13.817951 -4.521608 -0.482040 11.433297 
-19.398937 48.576778 89.035439 -0.636361 -1.978267 114.054413 0.000000 0.000000 0.000000 -1.114760 -2.416284 2.249034 6.948112 -1.583543 10.658278 8.777284 -4.601929 9.669983 -3.883633 -8.578138 -0.826812 -59.907978 -10.290054 41.401188 -61.773304 -2.028640 34.001144 -6.524419 4.063364 -3.551115 11.171576 14.694759 -1.259333 59.530926 -8.755181 29.739080 68.836426 -5.009181 28.668951 -8.281741 -3.427983 -3.502836 -0.410904 -0.291434 2.404969 1.942626 -5.788633 4.360325 -5.447682 -0.141878 3.512066 -2.636924 -11.140250 -15.698109 28.278603 5.708743 -15.452250 -6.261222 -0.675853 11.886845 
-19.073338 48.534477 89.277168 -1.614940 -1.212017 119.234848 0.000000 0.000000 0.000000 -0.576973 -1.472078 1.237772 7.133704 -1.048996 9.776954 8.188712 -4.835886 9.467213 -4.879222 -8.445176 -0.372926 -59.977039 -9.406708 37.836227 -59.228722 -2.607776 33.565659 -6.022365 3.827527 -3.527205 10.547559 15.994756 -1.062150 57.443256 -10.275262 26.377443 66.655830 -4.164781 27.998243 -8.612825 -3.303132 -3.505931 -1.810157 1.167198 2.949934 5.711346 -5.545637 -1.338643 -6.252381 -0.245651 4.466386 -1.816606 -10.715684 -14.226603 23.929474 5.111368 -14.245005 -6.226117 -0.681549 11.553145 
-18.688210 48.515877 89.625130 -1.502229 -0.883708 123.026505 0.000000 0.000000 0.000000 -0.019576 -1.396821 1.515124 7.217252 -1.030110 9.659611 9.080275 -5.045681 8.941026 -5.010571 -7.834229 0.137585 -61.513229 -7.674331 33.517097 -56.889065 -2.491665 34.686352 -4.583941 3.272527 -3.488829 10.303500 15.548581 -0.441393 57.587620 -12.183651 22.873791 63.927471 -2.951347 28.018747 -10.270745 -2.773420 -3.554429 -1.812988 2.007461 3.412779 6.585923 -5.837766 -5.372469 -5.938547 -0.180293 4.469746 -2.294920 -11.622257 -12.477212 22.397491 3.963167 -9.174395 -5.873522 -0.603298 11.267131 
-18.359404 48.445431 90.064880 -0.750848 -1.831185 125.975067 0.000000 0.000000 0.000000 0.106388 -2.002126 1.856786 7.115369 -2.318572 9.890840 8.913059 -4.942826 8.694439 -3.773827 -10.367727 0.248415 -58.937012 -6.423655 30.337109 -56.664799 -2.450265 34.246143 -1.987822 3.451601 -3.493788 10.390450 14.168348 -0.118936 57.297554 -13.316357 20.686190 61.158047 -1.553710 26.304090 -12.093335 -2.432314 -3.592262 -2.338110 1.665381 3.121138 6.694977 -6.142070 -7.975552 -5.575159 -0.184988 4.313869 -4.784489 -14.007947 -10.668200 23.513405 2.568091 -1.003611 -6.196035 -0.561744 10.912338 
